<svg xmlns="http://www.w3.org/2000/svg" width="1400" height="1180" viewBox="0 0 1400 1180"><rect width="1400" height="1180" fill="#F5F3ED"/><text x="58" y="58" font-family="Arial" font-size="14" fill="#58747A" letter-spacing="3">MEERKAT / IFC &amp; BIM TOOLS</text><g transform="translate(140 86) scale(1.35)"><g transform="translate(16 2) scale(1.4)"><g stroke="#C6E5DE" stroke-opacity=".38" stroke-width=".65" stroke-linejoin="round"><polygon points="52,88 39,101 18,108 35,108 55,99" fill="#0E565D"/><polygon points="18,108 9,106 19,114 35,108" fill="#12666B"/><polygon points="52,95 53,112 43,119 66,119 67,110 65,98" fill="#0E565D"/><polygon points="68,97 71,111 83,117 83,120 61,120 63,108" fill="#12666B"/><polygon points="47,92 42,79 51,67 59,84" fill="#31888A"/><polygon points="51,67 59,52 68,60 59,84" fill="#12666B"/><polygon points="59,52 68,43 74,53 68,60" fill="#31888A"/><polygon points="74,53 80,72 68,60" fill="#12666B"/><polygon points="80,72 76,92 59,84" fill="#0E565D"/><polygon points="80,72 68,60 59,84" fill="#217A7D"/><polygon points="76,92 65,108 59,84" fill="#12666B"/><polygon points="65,108 47,92 59,84" fill="#217A7D"/><polygon points="67,62 79,72 91,71 86,77 73,78 64,70" fill="#E6AA4D"/><polygon points="59,52 57,35 69,39 68,43" fill="#D49739"/><polygon points="57,35 54,23 69,25 69,39" fill="#E6AA4D"/><polygon points="54,23 60,12 72,10 69,25" fill="#F0BC66"/><polygon points="72,10 84,16 88,27 69,25" fill="#E6AA4D"/><polygon points="88,27 101,32 105,37 91,42 77,40 69,25" fill="#F0BC66"/><polygon points="69,25 77,40 69,39 57,35" fill="#D49739"/><polygon points="69,39 77,40 74,53 68,43" fill="#E6AA4D"/></g><path d="M57 20L52 17L53 11L60 12L64 19Z" fill="#0E565D"/><path d="M77 23L87 27L85 32L75 29Z" fill="#183A42"/><circle cx="82" cy="27" r="1.55" fill="#FFFFFF"/><path d="M101 32L106 35L104 38L99 36Z" fill="#0E565D"/></g><text x="201" y="106" font-family="Arial, sans-serif" font-size="72" font-weight="700" letter-spacing="-2.8" fill="#183A42">Meerkat</text><text x="206" y="144" font-family="Arial, sans-serif" font-size="14" letter-spacing="2.2" fill="#58747A">IFC &amp; BIM · GRASSHOPPER</text></g><rect x="48" y="370" width="1304" height="264" rx="18" fill="#183A42"/><g transform="translate(140 378) scale(1.3)"><g transform="translate(16 2) scale(1.4)"><g stroke="#C6E5DE" stroke-opacity=".38" stroke-width=".65" stroke-linejoin="round"><polygon points="52,88 39,101 18,108 35,108 55,99" fill="#4DA7A9"/><polygon points="18,108 9,106 19,114 35,108" fill="#70C4C0"/><polygon points="52,95 53,112 43,119 66,119 67,110 65,98" fill="#4DA7A9"/><polygon points="68,97 71,111 83,117 83,120 61,120 63,108" fill="#70C4C0"/><polygon points="47,92 42,79 51,67 59,84" fill="#8BD3CD"/><polygon points="51,67 59,52 68,60 59,84" fill="#70C4C0"/><polygon points="59,52 68,43 74,53 68,60" fill="#8BD3CD"/><polygon points="74,53 80,72 68,60" fill="#70C4C0"/><polygon points="80,72 76,92 59,84" fill="#4DA7A9"/><polygon points="80,72 68,60 59,84" fill="#60B6B5"/><polygon points="76,92 65,108 59,84" fill="#70C4C0"/><polygon points="65,108 47,92 59,84" fill="#60B6B5"/><polygon points="67,62 79,72 91,71 86,77 73,78 64,70" fill="#E6AA4D"/><polygon points="59,52 57,35 69,39 68,43" fill="#D49739"/><polygon points="57,35 54,23 69,25 69,39" fill="#E6AA4D"/><polygon points="54,23 60,12 72,10 69,25" fill="#F0BC66"/><polygon points="72,10 84,16 88,27 69,25" fill="#E6AA4D"/><polygon points="88,27 101,32 105,37 91,42 77,40 69,25" fill="#F0BC66"/><polygon points="69,25 77,40 69,39 57,35" fill="#D49739"/><polygon points="69,39 77,40 74,53 68,43" fill="#E6AA4D"/></g><path d="M57 20L52 17L53 11L60 12L64 19Z" fill="#4DA7A9"/><path d="M77 23L87 27L85 32L75 29Z" fill="#183A42"/><circle cx="82" cy="27" r="1.55" fill="#FFFFFF"/><path d="M101 32L106 35L104 38L99 36Z" fill="#4DA7A9"/></g><text x="201" y="106" font-family="Arial, sans-serif" font-size="72" font-weight="700" letter-spacing="-2.8" fill="#F5F3ED">Meerkat</text><text x="206" y="144" font-family="Arial, sans-serif" font-size="14" letter-spacing="2.2" fill="#B2CED0">IFC &amp; BIM · GRASSHOPPER</text></g><text x="58" y="693" font-family="Arial" font-size="14" fill="#58747A" letter-spacing="2">19 COMPONENTI / ICONE INCORPORATE A 24 PX</text><g transform="translate(48 738)"><rect width="247" height="84" rx="9" fill="white"/><g transform="translate(14 12) scale(1.9)"><rect x=".5" y=".5" width="23" height="23" rx="4" fill="#F5F3ED" stroke="#267E87" stroke-opacity=".28"/><g transform="translate(1 1) scale(.92)" fill="none" stroke="#267E87" stroke-width="1.7" stroke-linecap="round" stroke-linejoin="round"><path d="M5 3h9l4 4v5 M14 3v5h5 M5 3v17h7 M14 16h7m-3-3 3 3-3 3"/></g></g><text x="71" y="28" font-family="Arial" font-size="12" fill="#183A42">Read IFC</text><text x="71" y="49" font-family="Arial" font-size="11" fill="#58747A">Lettura</text></g><g transform="translate(311 738)"><rect width="247" height="84" rx="9" fill="white"/><g transform="translate(14 12) scale(1.9)"><rect x=".5" y=".5" width="23" height="23" rx="4" fill="#F5F3ED" stroke="#267E87" stroke-opacity=".28"/><g transform="translate(1 1) scale(.92)" fill="none" stroke="#267E87" stroke-width="1.7" stroke-linecap="round" stroke-linejoin="round"><path d="M4 20V7l7-4v17M11 9h8v11M3 20h18M7 7v2m0 3v2m0 3v1M15 12v1m0 3v1"/></g></g><text x="71" y="28" font-family="Arial" font-size="12" fill="#183A42">IFC Model Info</text><text x="71" y="49" font-family="Arial" font-size="11" fill="#58747A">Lettura</text></g><g transform="translate(574 738)"><rect width="247" height="84" rx="9" fill="white"/><g transform="translate(14 12) scale(1.9)"><rect x=".5" y=".5" width="23" height="23" rx="4" fill="#F5F3ED" stroke="#267E87" stroke-opacity=".28"/><g transform="translate(1 1) scale(.92)" fill="none" stroke="#267E87" stroke-width="1.7" stroke-linecap="round" stroke-linejoin="round"><path d="M3 8l7-4 7 4-7 4zM3 8v8l7 4 4-2M10 12v8"/><circle cx="17" cy="15" r="3"/><path d="M19 17l3 4"/></g></g><text x="71" y="28" font-family="Arial" font-size="12" fill="#183A42">IFC Elements</text><text x="71" y="49" font-family="Arial" font-size="11" fill="#58747A">Lettura</text></g><g transform="translate(837 738)"><rect width="247" height="84" rx="9" fill="white"/><g transform="translate(14 12) scale(1.9)"><rect x=".5" y=".5" width="23" height="23" rx="4" fill="#F5F3ED" stroke="#267E87" stroke-opacity=".28"/><g transform="translate(1 1) scale(.92)" fill="none" stroke="#267E87" stroke-width="1.7" stroke-linecap="round" stroke-linejoin="round"><path d="M3 10l6-3 6 3v8l-6 3-6-3zM3 10l6 3 6-3M9 13v8M21 12a7 7 0 0 0-9-8M12 2v4h4"/></g></g><text x="71" y="28" font-family="Arial" font-size="12" fill="#183A42">IFC Read Baked</text><text x="71" y="49" font-family="Arial" font-size="11" fill="#58747A">Lettura</text></g><g transform="translate(1100 738)"><rect width="247" height="84" rx="9" fill="white"/><g transform="translate(14 12) scale(1.9)"><rect x=".5" y=".5" width="23" height="23" rx="4" fill="#F5F3ED" stroke="#B36A29" stroke-opacity=".28"/><g transform="translate(1 1) scale(.92)" fill="none" stroke="#B36A29" stroke-width="1.7" stroke-linecap="round" stroke-linejoin="round"><circle cx="8" cy="8" r="4"/><path d="M11 11l9 9m-6-6 3-3m0 6 3-3"/></g></g><text x="71" y="28" font-family="Arial" font-size="12" fill="#183A42">IFC Property Keys</text><text x="71" y="49" font-family="Arial" font-size="11" fill="#58747A">Parametri</text></g><g transform="translate(48 838)"><rect width="247" height="84" rx="9" fill="white"/><g transform="translate(14 12) scale(1.9)"><rect x=".5" y=".5" width="23" height="23" rx="4" fill="#F5F3ED" stroke="#B36A29" stroke-opacity=".28"/><g transform="translate(1 1) scale(.92)" fill="none" stroke="#B36A29" stroke-width="1.7" stroke-linecap="round" stroke-linejoin="round"><path d="M5 3h14v18H5zM8 7h8M8 11h3M8 15h3M8 18h3M14 12l3 3-3 3"/></g></g><text x="71" y="28" font-family="Arial" font-size="12" fill="#183A42">IFC Property Value</text><text x="71" y="49" font-family="Arial" font-size="11" fill="#58747A">Parametri</text></g><g transform="translate(311 838)"><rect width="247" height="84" rx="9" fill="white"/><g transform="translate(14 12) scale(1.9)"><rect x=".5" y=".5" width="23" height="23" rx="4" fill="#F5F3ED" stroke="#B36A29" stroke-opacity=".28"/><g transform="translate(1 1) scale(.92)" fill="none" stroke="#B36A29" stroke-width="1.7" stroke-linecap="round" stroke-linejoin="round"><path d="M3 4h18l-7 9v6l-4 2v-8z"/></g></g><text x="71" y="28" font-family="Arial" font-size="12" fill="#183A42">IFC Filter Property</text><text x="71" y="49" font-family="Arial" font-size="11" fill="#58747A">Parametri</text></g><g transform="translate(574 838)"><rect width="247" height="84" rx="9" fill="white"/><g transform="translate(14 12) scale(1.9)"><rect x=".5" y=".5" width="23" height="23" rx="4" fill="#F5F3ED" stroke="#B36A29" stroke-opacity=".28"/><g transform="translate(1 1) scale(.92)" fill="none" stroke="#B36A29" stroke-width="1.7" stroke-linecap="round" stroke-linejoin="round"><path d="M3 8V3h5m8 0h5v5M3 16v5h5m8 0h5v-5M10 7l-2 10m7-10-2 10M6 10h12M5 14h12"/></g></g><text x="71" y="28" font-family="Arial" font-size="12" fill="#183A42">IFC Select IDs</text><text x="71" y="49" font-family="Arial" font-size="11" fill="#58747A">Parametri</text></g><g transform="translate(837 838)"><rect width="247" height="84" rx="9" fill="white"/><g transform="translate(14 12) scale(1.9)"><rect x=".5" y=".5" width="23" height="23" rx="4" fill="#F5F3ED" stroke="#B36A29" stroke-opacity=".28"/><g transform="translate(1 1) scale(.92)" fill="none" stroke="#B36A29" stroke-width="1.7" stroke-linecap="round" stroke-linejoin="round"><rect x="8" y="3" width="8" height="5" rx="1"/><rect x="2" y="16" width="8" height="5" rx="1"/><rect x="14" y="16" width="8" height="5" rx="1"/><path d="M12 8v4M6 16v-4h12v4"/></g></g><text x="71" y="28" font-family="Arial" font-size="12" fill="#183A42">IFC Group By</text><text x="71" y="49" font-family="Arial" font-size="11" fill="#58747A">Parametri</text></g><g transform="translate(1100 838)"><rect width="247" height="84" rx="9" fill="white"/><g transform="translate(14 12) scale(1.9)"><rect x=".5" y=".5" width="23" height="23" rx="4" fill="#F5F3ED" stroke="#B36A29" stroke-opacity=".28"/><g transform="translate(1 1) scale(.92)" fill="none" stroke="#B36A29" stroke-width="1.7" stroke-linecap="round" stroke-linejoin="round"><path d="M4 5h3M4 11h7M4 17h11M19 3v17m-3-3 3 3 3-3"/></g></g><text x="71" y="28" font-family="Arial" font-size="12" fill="#183A42">IFC Sort</text><text x="71" y="49" font-family="Arial" font-size="11" fill="#58747A">Parametri</text></g><g transform="translate(48 938)"><rect width="247" height="84" rx="9" fill="white"/><g transform="translate(14 12) scale(1.9)"><rect x=".5" y=".5" width="23" height="23" rx="4" fill="#F5F3ED" stroke="#356AAF" stroke-opacity=".28"/><g transform="translate(1 1) scale(.92)" fill="none" stroke="#356AAF" stroke-width="1.7" stroke-linecap="round" stroke-linejoin="round"><path d="M12 3a9 9 0 1 0 2 18c3-1-1-4 1-6s7 1 6-5c-1-4-5-7-9-7z"/><circle cx="8" cy="7" r="1"/><circle cx="16" cy="7" r="1"/><circle cx="6" cy="13" r="1"/><circle cx="10" cy="17" r="1"/></g></g><text x="71" y="28" font-family="Arial" font-size="12" fill="#183A42">IFC Color By</text><text x="71" y="49" font-family="Arial" font-size="11" fill="#58747A">Vista</text></g><g transform="translate(311 938)"><rect width="247" height="84" rx="9" fill="white"/><g transform="translate(14 12) scale(1.9)"><rect x=".5" y=".5" width="23" height="23" rx="4" fill="#F5F3ED" stroke="#356AAF" stroke-opacity=".28"/><g transform="translate(1 1) scale(.92)" fill="none" stroke="#356AAF" stroke-width="1.7" stroke-linecap="round" stroke-linejoin="round"><path d="M3 8l9-5 9 5v9l-9 5-9-5zM3 8l9 5 9-5M12 13v9M6 9v3m3-1v3m6-2v3m3-4v3"/></g></g><text x="71" y="28" font-family="Arial" font-size="12" fill="#183A42">IFC Geometry Metrics</text><text x="71" y="49" font-family="Arial" font-size="11" fill="#58747A">Vista</text></g><g transform="translate(574 938)"><rect width="247" height="84" rx="9" fill="white"/><g transform="translate(14 12) scale(1.9)"><rect x=".5" y=".5" width="23" height="23" rx="4" fill="#F5F3ED" stroke="#356AAF" stroke-opacity=".28"/><g transform="translate(1 1) scale(.92)" fill="none" stroke="#356AAF" stroke-width="1.7" stroke-linecap="round" stroke-linejoin="round"><circle cx="12" cy="12" r="6"/><path d="M12 2v20M2 12h20M16 4l-4-2-4 2M20 8l2 4-2 4"/></g></g><text x="71" y="28" font-family="Arial" font-size="12" fill="#183A42">IFC Local Origin</text><text x="71" y="49" font-family="Arial" font-size="11" fill="#58747A">Vista</text></g><g transform="translate(837 938)"><rect width="247" height="84" rx="9" fill="white"/><g transform="translate(14 12) scale(1.9)"><rect x=".5" y=".5" width="23" height="23" rx="4" fill="#F5F3ED" stroke="#6757AE" stroke-opacity=".28"/><g transform="translate(1 1) scale(.92)" fill="none" stroke="#6757AE" stroke-width="1.7" stroke-linecap="round" stroke-linejoin="round"><path d="M5 4h14v17H5zM9 4V2h6v2M8 12l3 3 6-7"/></g></g><text x="71" y="28" font-family="Arial" font-size="12" fill="#183A42">IFC Check Data</text><text x="71" y="49" font-family="Arial" font-size="11" fill="#58747A">Controlli</text></g><g transform="translate(1100 938)"><rect width="247" height="84" rx="9" fill="white"/><g transform="translate(14 12) scale(1.9)"><rect x=".5" y=".5" width="23" height="23" rx="4" fill="#F5F3ED" stroke="#6757AE" stroke-opacity=".28"/><g transform="translate(1 1) scale(.92)" fill="none" stroke="#6757AE" stroke-width="1.7" stroke-linecap="round" stroke-linejoin="round"><path d="M3 3h7v17H3zM14 3h7v17h-7zM5 8h3m8 0h3m-1.5-1.5v3M5 15h3M16 15h3"/></g></g><text x="71" y="28" font-family="Arial" font-size="12" fill="#183A42">IFC Compare Revisions</text><text x="71" y="49" font-family="Arial" font-size="11" fill="#58747A">Controlli</text></g><g transform="translate(48 1038)"><rect width="247" height="84" rx="9" fill="white"/><g transform="translate(14 12) scale(1.9)"><rect x=".5" y=".5" width="23" height="23" rx="4" fill="#F5F3ED" stroke="#39805A" stroke-opacity=".28"/><g transform="translate(1 1) scale(.92)" fill="none" stroke="#39805A" stroke-width="1.7" stroke-linecap="round" stroke-linejoin="round"><path d="M3 13l9 4 9-4M3 17l9 4 9-4M12 2v11m-4-4 4 4 4-4M3 9l4-2m10 0 4 2"/></g></g><text x="71" y="28" font-family="Arial" font-size="12" fill="#183A42">Bake IFC</text><text x="71" y="49" font-family="Arial" font-size="11" fill="#58747A">Salvataggio</text></g><g transform="translate(311 1038)"><rect width="247" height="84" rx="9" fill="white"/><g transform="translate(14 12) scale(1.9)"><rect x=".5" y=".5" width="23" height="23" rx="4" fill="#F5F3ED" stroke="#39805A" stroke-opacity=".28"/><g transform="translate(1 1) scale(.92)" fill="none" stroke="#39805A" stroke-width="1.7" stroke-linecap="round" stroke-linejoin="round"><path d="M3 7h18v14H3zM2 3h20v4H2zM9 10h6v3H9z"/></g></g><text x="71" y="28" font-family="Arial" font-size="12" fill="#183A42">Save IFC Archive</text><text x="71" y="49" font-family="Arial" font-size="11" fill="#58747A">Salvataggio</text></g><g transform="translate(574 1038)"><rect width="247" height="84" rx="9" fill="white"/><g transform="translate(14 12) scale(1.9)"><rect x=".5" y=".5" width="23" height="23" rx="4" fill="#F5F3ED" stroke="#39805A" stroke-opacity=".28"/><g transform="translate(1 1) scale(.92)" fill="none" stroke="#39805A" stroke-width="1.7" stroke-linecap="round" stroke-linejoin="round"><path d="M3 3h13v18H3zM3 8h13M3 13h8M3 17h8M8 3v18M13 15h9m-3-3 3 3-3 3"/></g></g><text x="71" y="28" font-family="Arial" font-size="12" fill="#183A42">IFC Export CSV</text><text x="71" y="49" font-family="Arial" font-size="11" fill="#58747A">Salvataggio</text></g><g transform="translate(837 1038)"><rect width="247" height="84" rx="9" fill="white"/><g transform="translate(14 12) scale(1.9)"><rect x=".5" y=".5" width="23" height="23" rx="4" fill="#F5F3ED" stroke="#39805A" stroke-opacity=".28"/><g transform="translate(1 1) scale(.92)" fill="none" stroke="#39805A" stroke-width="1.7" stroke-linecap="round" stroke-linejoin="round"><path d="M2 7l7-4 7 4-7 4zM2 7v10l7 4 5-3M9 11v10M14 13h8m-3-3 3 3-3 3"/></g></g><text x="71" y="28" font-family="Arial" font-size="12" fill="#183A42">IFC Export 3DM</text><text x="71" y="49" font-family="Arial" font-size="11" fill="#58747A">Salvataggio</text></g></svg>